<svg xmlns="http://www.w3.org/2000/svg" xmlns:xlink="http://www.w3.org/1999/xlink" viewBox="0 0 327.7 326.97"><defs><style>.cls-1{fill:url(#linear-gradient);}</style><linearGradient id="linear-gradient" y1="-229.49" x2="327.7" y2="-229.49" gradientTransform="matrix(1, 0, 0, -1, 0, -66)" gradientUnits="userSpaceOnUse"><stop offset="0" stop-color="#3d81ff"/><stop offset="1" stop-color="#30b994"/></linearGradient></defs><g id="Layer_2" data-name="Layer 2"><g id="Layer_1-2" data-name="Layer 1"><path class="cls-1" d="M195.4,320.3l-.3.3a21.91,21.91,0,0,1-30.9,0L60.4,217a9.36,9.36,0,0,0-13.3,0l-.1.1a9.47,9.47,0,0,0-2.8,6.7v18.7a21.89,21.89,0,0,1-21.9,21.9h-.5A22,22,0,0,1,0,242.4V21.9A21.89,21.89,0,0,1,21.9,0h.5A21.89,21.89,0,0,1,44.3,21.9V144.1a5.55,5.55,0,0,0,9.5,3.9l.1-.1h0l68.6-68.7a21.91,21.91,0,0,1,30.9,0l.3.3a21.91,21.91,0,0,1,0,30.9l-62,62a9.36,9.36,0,0,0,0,13.3L195.4,289.3A21.85,21.85,0,0,1,195.4,320.3ZM179.3,210.6,210.9,179a21.73,21.73,0,0,0,0-30.9l-.3-.3a21.73,21.73,0,0,0-30.9,0L148,179.4a21.73,21.73,0,0,0,0,30.9l.3.3A21.85,21.85,0,0,0,179.3,210.6Zm142.1-47-.3-.3c-.5-.5-1-.9-1.5-1.4l-61.3-61.3A22.13,22.13,0,1,0,227,131.9l40.6,40.6a9.36,9.36,0,0,1,0,13.3l-40.8,40.8A22.06,22.06,0,1,0,258,257.8l61.5-61.5a19.2,19.2,0,0,0,1.5-1.4l.3-.3a22.09,22.09,0,0,0,.1-31Z"/></g></g></svg>